<svg width="1920" height="984" viewBox="0 0 1920 984" fill="none" xmlns="http://www.w3.org/2000/svg">
<g filter="url(#filter0_i_1_864)">
<path d="M1919.5 892.5V787C1919.5 869 1767.17 929.5 1691 949.5C1719.8 946.3 1751.33 963.833 1763.5 973C1823.9 973 1892.67 919.333 1919.5 892.5Z" fill="url(#paint0_linear_1_864)"/>
</g>
<g filter="url(#filter1_i_1_864)">
<path d="M0 903.5V798C0 880 152.333 940.5 228.5 960.5C199.7 957.3 168.167 974.833 156 984C95.6 984 26.8333 930.333 0 903.5Z" fill="url(#paint1_linear_1_864)"/>
</g>
<g filter="url(#filter2_i_1_864)">
<path d="M-88 171C-88 167.606 -86.025 160.934 -74.4759 151.224C-63.119 141.674 -45.0204 131.423 -19.4118 121.032C31.6242 100.323 107.953 80.84 207.246 64.1512C405.544 30.8223 675.257 12 957 12C1238.74 12 1508.46 30.8223 1706.75 64.1512C1806.05 80.84 1882.38 100.323 1933.41 121.032C1959.02 131.423 1977.12 141.674 1988.48 151.224C2000.03 160.934 2002 167.606 2002 171" stroke="url(#paint2_linear_1_864)" stroke-width="40"/>
</g>
<defs>
<filter id="filter0_i_1_864" x="1691" y="787" width="228.5" height="190" filterUnits="userSpaceOnUse" color-interpolation-filters="sRGB">
<feFlood flood-opacity="0" result="BackgroundImageFix"/>
<feBlend mode="normal" in="SourceGraphic" in2="BackgroundImageFix" result="shape"/>
<feColorMatrix in="SourceAlpha" type="matrix" values="0 0 0 0 0 0 0 0 0 0 0 0 0 0 0 0 0 0 127 0" result="hardAlpha"/>
<feOffset dy="4"/>
<feGaussianBlur stdDeviation="2"/>
<feComposite in2="hardAlpha" operator="arithmetic" k2="-1" k3="1"/>
<feColorMatrix type="matrix" values="0 0 0 0 1 0 0 0 0 1 0 0 0 0 1 0 0 0 0.25 0"/>
<feBlend mode="normal" in2="shape" result="effect1_innerShadow_1_864"/>
</filter>
<filter id="filter1_i_1_864" x="0" y="798" width="228.5" height="190" filterUnits="userSpaceOnUse" color-interpolation-filters="sRGB">
<feFlood flood-opacity="0" result="BackgroundImageFix"/>
<feBlend mode="normal" in="SourceGraphic" in2="BackgroundImageFix" result="shape"/>
<feColorMatrix in="SourceAlpha" type="matrix" values="0 0 0 0 0 0 0 0 0 0 0 0 0 0 0 0 0 0 127 0" result="hardAlpha"/>
<feOffset dy="4"/>
<feGaussianBlur stdDeviation="2"/>
<feComposite in2="hardAlpha" operator="arithmetic" k2="-1" k3="1"/>
<feColorMatrix type="matrix" values="0 0 0 0 1 0 0 0 0 1 0 0 0 0 1 0 0 0 0.25 0"/>
<feBlend mode="normal" in2="shape" result="effect1_innerShadow_1_864"/>
</filter>
<filter id="filter2_i_1_864" x="-108" y="-8" width="2130" height="189.818" filterUnits="userSpaceOnUse" color-interpolation-filters="sRGB">
<feFlood flood-opacity="0" result="BackgroundImageFix"/>
<feBlend mode="normal" in="SourceGraphic" in2="BackgroundImageFix" result="shape"/>
<feColorMatrix in="SourceAlpha" type="matrix" values="0 0 0 0 0 0 0 0 0 0 0 0 0 0 0 0 0 0 127 0" result="hardAlpha"/>
<feOffset dy="8"/>
<feGaussianBlur stdDeviation="4"/>
<feComposite in2="hardAlpha" operator="arithmetic" k2="-1" k3="1"/>
<feColorMatrix type="matrix" values="0 0 0 0 1 0 0 0 0 1 0 0 0 0 1 0 0 0 0.25 0"/>
<feBlend mode="normal" in2="shape" result="effect1_innerShadow_1_864"/>
</filter>
<linearGradient id="paint0_linear_1_864" x1="1786" y1="871.5" x2="1805.25" y2="973" gradientUnits="userSpaceOnUse">
<stop offset="0.219634" stop-color="#272727"/>
<stop offset="1" stop-opacity="0.04"/>
</linearGradient>
<linearGradient id="paint1_linear_1_864" x1="133.5" y1="882.5" x2="114.25" y2="984" gradientUnits="userSpaceOnUse">
<stop offset="0.219634" stop-color="#272727"/>
<stop offset="1" stop-opacity="0.04"/>
</linearGradient>
<linearGradient id="paint2_linear_1_864" x1="957" y1="-8" x2="957" y2="350" gradientUnits="userSpaceOnUse">
<stop stop-color="#232323"/>
<stop offset="1" stop-color="#303030"/>
</linearGradient>
</defs>
</svg>
