<svg width="368" height="23" viewBox="0 0 368 23" fill="none" xmlns="http://www.w3.org/2000/svg">
<line y1="-1.5" x2="13" y2="-1.5" transform="matrix(4.37114e-08 1 1 -4.37114e-08 56 7)" stroke="#1B46B7" stroke-width="3"/>
<line y1="-1.5" x2="50" y2="-1.5" transform="matrix(1 0 0 -1 6 4)" stroke="#1B46B7" stroke-width="3"/>
<path d="M1.125 20V11.5449H8.63672V12.8164H2.73633V15.0957H8.23828V16.2969H2.73633V18.7285H8.63672V20H1.125Z" fill="#1B46B7"/>
<line x1="68" y1="5.5" x2="302" y2="5.5" stroke="white" stroke-width="3"/>
<line x1="69.5" y1="7" x2="69.5" y2="20" stroke="white" stroke-width="3"/>
<line x1="300.5" y1="7" x2="300.5" y2="20" stroke="white" stroke-width="3"/>
<line x1="173" y1="2" x2="197" y2="2" stroke="white" stroke-width="4"/>
<line x1="315.5" y1="7" x2="315.5" y2="20" stroke="#CE4727" stroke-width="3"/>
<line x1="364" y1="5.5" x2="314" y2="5.5" stroke="#CE4727" stroke-width="3"/>
<path d="M359.125 20V11.5449H366.543V12.8574H360.736V15.3242H366.168V16.5723H360.736V20H359.125Z" fill="#CE4727"/>
</svg>
