<svg width="18" height="18" viewBox="0 0 18 18" fill="none" xmlns="http://www.w3.org/2000/svg">
<rect width="18" height="18" fill="white" fill-opacity="0.01"/>
<path d="M13.875 1.5C14.875 2.75 15.625 4.25 16.125 6V13.125C16.125 13.9534 15.4534 14.625 14.625 14.625C13.7966 14.625 13.125 13.9534 13.125 13.125V9.375C13.125 8.54657 12.4534 7.875 11.625 7.875H10.875M12 16.875H2.25002H12ZM10.875 16.875V2.625C10.875 1.79657 10.2034 1.125 9.37501 1.125H4.87502C4.04659 1.125 3.37502 1.79657 3.37502 2.625V16.875H10.875ZM9.75001 7.875H4.50002H9.75001Z" stroke="white" stroke-width="1.86564"/>
<path d="M4.50009 4.11564C4.50009 3.08528 5.33537 2.25 6.36573 2.25H7.88445C8.91482 2.25 9.75009 3.08528 9.75009 4.11564V7.5H4.50009V4.11564Z" fill="white"/>
</svg>
