<svg width="263" height="118" viewBox="0 0 263 118" fill="none" xmlns="http://www.w3.org/2000/svg">
<path d="M248.211 98.0633C255.682 89.6363 260.527 79.2084 262.149 68.0632C263.77 56.918 262.097 45.542 257.335 35.3355C252.574 25.129 244.932 16.5374 235.35 10.6184C225.769 4.69944 214.665 1.71134 203.407 2.02197C192.149 2.33259 181.227 5.92838 171.987 12.3667C162.746 18.805 155.589 27.8049 151.398 38.2584C147.207 48.712 146.163 60.1629 148.397 71.2017C150.63 82.2406 156.043 92.3855 163.968 100.388L164.788 99.5749C157.022 91.7328 151.718 81.7908 149.529 70.9727C147.34 60.1547 148.363 48.9327 152.47 38.6882C156.578 28.4438 163.591 19.6239 172.647 13.3144C181.703 7.00481 192.406 3.48094 203.439 3.17653C214.472 2.87212 225.353 5.80045 234.743 11.6011C244.134 17.4017 251.623 25.8214 256.289 35.8238C260.955 45.8262 262.594 56.9747 261.006 67.897C259.417 78.8192 254.669 89.0386 247.346 97.297L248.211 98.0633Z" fill="#242627"/>
<path d="M245.966 96.073C253.05 88.0838 257.643 78.1976 259.18 67.6314C260.717 57.0652 259.131 46.2801 254.617 36.6038C250.103 26.9275 242.858 18.7822 233.774 13.1707C224.69 7.55921 214.163 4.72634 203.49 5.02083C192.817 5.31532 182.462 8.72431 173.702 14.8282C164.941 20.932 158.156 29.4644 154.183 39.3749C150.209 49.2854 149.22 60.1415 151.337 70.6069C153.455 81.0722 158.586 90.6901 166.099 98.2766L173.879 90.5713C167.869 84.5021 163.764 76.8078 162.07 68.4355C160.376 60.0632 161.167 51.3783 164.346 43.4499C167.525 35.5215 172.953 28.6956 179.961 23.8125C186.97 18.9294 195.253 16.2023 203.792 15.9667C212.331 15.7311 220.752 17.9974 228.019 22.4866C235.286 26.9758 241.082 33.492 244.693 41.233C248.305 48.9741 249.573 57.6021 248.344 66.0551C247.114 74.5081 243.44 82.417 237.773 88.8084L245.966 96.073Z" fill="#161616"/>
<rect x="203.5" y="10.25" width="3" height="6" fill="#050505"/>
<rect x="171.743" y="88.25" width="3" height="10.0852" transform="rotate(45 171.743 88.25)" fill="white"/>
<path d="M188.266 96V86.488H194.231C194.965 86.488 195.591 86.6089 196.11 86.8506C196.633 87.0879 197.033 87.4263 197.31 87.8657C197.586 88.3008 197.725 88.8193 197.725 89.4214V89.4346C197.725 90.1157 197.547 90.6958 197.191 91.1748C196.835 91.6538 196.321 91.9944 195.648 92.1965L198.048 96H195.952L193.796 92.4668C193.783 92.4668 193.768 92.4668 193.75 92.4668C193.732 92.4668 193.715 92.4668 193.697 92.4668H190.078V96H188.266ZM190.078 91.1155H194.086C194.657 91.1155 195.099 90.9749 195.411 90.6936C195.723 90.4124 195.879 90.0168 195.879 89.5071V89.4939C195.879 88.9973 195.717 88.6084 195.391 88.3271C195.071 88.0415 194.622 87.8987 194.047 87.8987H190.078V91.1155ZM200.915 92.8623V91.4517H205.378C206.037 91.4517 206.542 91.3 206.894 90.9968C207.25 90.6892 207.428 90.2542 207.428 89.6917V89.6785C207.428 89.116 207.25 88.6831 206.894 88.3799C206.538 88.0723 206.033 87.9185 205.378 87.9185H200.915V86.488H205.668C206.406 86.488 207.043 86.6199 207.58 86.8835C208.12 87.1472 208.538 87.5164 208.832 87.991C209.126 88.4612 209.274 89.0149 209.274 89.6521V89.6653C209.274 90.3025 209.124 90.8606 208.825 91.3396C208.531 91.8186 208.114 92.1921 207.573 92.4602C207.037 92.7283 206.402 92.8623 205.668 92.8623H200.915ZM200.012 96V86.488H201.825V96H200.012ZM211.311 96V86.488H213.459L217.388 93.9961H217.461L221.383 86.488H223.538V96H221.851V88.9929H221.106L222.622 87.2659L218.087 96H216.755L212.227 87.2659L213.743 88.9929H212.998V96H211.311Z" fill="#898989"/>
<path d="M180.136 113.727C178.993 113.727 178.004 113.5 177.169 113.046C176.334 112.587 175.688 111.945 175.229 111.12C174.77 110.294 174.54 109.328 174.54 108.219V108.205C174.54 107.091 174.77 106.122 175.229 105.297C175.688 104.472 176.334 103.832 177.169 103.378C178.004 102.924 178.993 102.697 180.136 102.697C181.259 102.697 182.233 102.926 183.058 103.385C183.883 103.839 184.523 104.479 184.977 105.304C185.431 106.129 185.658 107.096 185.658 108.205V108.219C185.658 109.323 185.431 110.29 184.977 111.12C184.523 111.945 183.883 112.587 183.058 113.046C182.233 113.5 181.259 113.727 180.136 113.727ZM180.136 112.145C180.849 112.145 181.466 111.984 181.989 111.662C182.511 111.334 182.914 110.878 183.197 110.292C183.48 109.701 183.622 109.008 183.622 108.212V108.197C183.622 107.406 183.48 106.718 183.197 106.132C182.914 105.541 182.511 105.084 181.989 104.762C181.466 104.44 180.849 104.279 180.136 104.279C179.403 104.279 178.771 104.44 178.239 104.762C177.707 105.084 177.296 105.539 177.008 106.125C176.725 106.71 176.583 107.401 176.583 108.197V108.212C176.583 109.008 176.725 109.701 177.008 110.292C177.296 110.883 177.707 111.339 178.239 111.662C178.771 111.984 179.403 112.145 180.136 112.145Z" fill="#D5D5D5"/>
<path d="M234.004 113.712C232.876 113.712 231.899 113.585 231.074 113.332C230.254 113.073 229.619 112.711 229.17 112.248C228.726 111.779 228.503 111.229 228.503 110.6V110.585C228.503 110.15 228.613 109.755 228.833 109.398C229.053 109.042 229.363 108.742 229.763 108.498C230.164 108.249 230.635 108.07 231.177 107.963V107.926C230.469 107.77 229.905 107.484 229.485 107.069C229.065 106.654 228.855 106.159 228.855 105.583V105.568C228.855 104.987 229.062 104.484 229.478 104.059C229.893 103.629 230.483 103.3 231.25 103.07C232.017 102.836 232.935 102.719 234.004 102.719C235.073 102.719 235.991 102.836 236.758 103.07C237.529 103.3 238.12 103.629 238.53 104.059C238.945 104.484 239.153 104.987 239.153 105.568V105.583C239.153 106.159 238.943 106.654 238.523 107.069C238.108 107.484 237.544 107.77 236.831 107.926V107.963C237.378 108.07 237.849 108.249 238.245 108.498C238.645 108.742 238.955 109.042 239.175 109.398C239.395 109.755 239.504 110.15 239.504 110.585V110.6C239.504 111.229 239.28 111.779 238.831 112.248C238.386 112.711 237.751 113.073 236.926 113.332C236.106 113.585 235.132 113.712 234.004 113.712ZM234.004 112.233C234.717 112.233 235.327 112.162 235.835 112.021C236.343 111.874 236.733 111.667 237.007 111.398C237.28 111.129 237.417 110.814 237.417 110.453V110.438C237.417 110.082 237.283 109.777 237.014 109.523C236.746 109.264 236.357 109.066 235.85 108.93C235.347 108.788 234.731 108.717 234.004 108.717C233.281 108.717 232.666 108.788 232.158 108.93C231.65 109.066 231.262 109.264 230.994 109.523C230.73 109.777 230.598 110.082 230.598 110.438V110.453C230.598 110.814 230.732 111.129 231.001 111.398C231.274 111.667 231.665 111.874 232.173 112.021C232.686 112.162 233.296 112.233 234.004 112.233ZM234.004 107.311C234.683 107.311 235.254 107.248 235.718 107.121C236.187 106.994 236.543 106.813 236.787 106.579C237.031 106.344 237.153 106.063 237.153 105.736V105.722C237.153 105.404 237.031 105.131 236.787 104.901C236.548 104.672 236.194 104.496 235.725 104.374C235.256 104.252 234.683 104.191 234.004 104.191C233.33 104.191 232.756 104.252 232.283 104.374C231.814 104.496 231.458 104.672 231.213 104.901C230.974 105.131 230.854 105.404 230.854 105.722V105.736C230.854 106.063 230.977 106.344 231.221 106.579C231.465 106.813 231.819 106.994 232.283 107.121C232.751 107.248 233.325 107.311 234.004 107.311Z" fill="#D5D5D5"/>
<path d="M188.504 52.5V44.6228H188.431L185.623 46.2642V44.6821L188.497 42.988H190.297V52.5H188.504ZM196.974 42.8232L193.547 54.8335H191.984L195.412 42.8232H196.974ZM198.286 52.5V42.988H200.435L204.364 50.4961H204.436L208.358 42.988H210.514V52.5H208.826V45.4929H208.082L209.598 43.7659L205.062 52.5H203.731L199.202 43.7659L200.719 45.4929H199.974V52.5H198.286ZM213.039 52.5V42.988H214.851V52.5H213.039ZM217.389 52.5V42.988H219.017L226.651 50.885L224.924 49.9753H225.748V42.988H227.508V52.5H225.879L218.246 44.5833L219.973 45.4929H219.149V52.5H217.389ZM179.849 68.5L184.522 63.2134L184.068 64.334V63.7275L179.875 58.988H182.123L185.327 62.6794H186.065L184.944 63.2266L188.59 58.988H190.771L186.507 63.7341V64.3406L186.045 63.2266L190.719 68.5H188.504L185.294 64.8877H184.555L185.709 64.3538L181.985 68.5H179.849ZM195.188 68.5V60.6228H195.115L192.307 62.2642V60.6821L195.181 58.988H196.981V68.5H195.188ZM204.641 68.7043C203.612 68.7043 202.722 68.5 201.971 68.0913C201.219 67.6782 200.637 67.1003 200.224 66.3577C199.811 65.615 199.604 64.7449 199.604 63.7473V63.7341C199.604 62.7322 199.811 61.8599 200.224 61.1172C200.637 60.3745 201.219 59.7988 201.971 59.3901C202.722 58.9814 203.612 58.7771 204.641 58.7771C205.651 58.7771 206.528 58.9836 207.271 59.3967C208.013 59.8054 208.589 60.3811 208.998 61.1238C209.406 61.8665 209.611 62.7366 209.611 63.7341V63.7473C209.611 64.7405 209.406 65.6106 208.998 66.3577C208.589 67.1003 208.013 67.6782 207.271 68.0913C206.528 68.5 205.651 68.7043 204.641 68.7043ZM204.641 67.2805C205.282 67.2805 205.838 67.1355 206.308 66.8455C206.779 66.551 207.141 66.1401 207.396 65.6128C207.651 65.0811 207.778 64.457 207.778 63.7407V63.7275C207.778 63.0156 207.651 62.396 207.396 61.8687C207.141 61.3369 206.779 60.926 206.308 60.636C205.838 60.3459 205.282 60.2009 204.641 60.2009C203.981 60.2009 203.412 60.3459 202.933 60.636C202.454 60.926 202.085 61.3347 201.826 61.8621C201.571 62.3894 201.444 63.0112 201.444 63.7275V63.7407C201.444 64.457 201.571 65.0811 201.826 65.6128C202.085 66.1445 202.454 66.5554 202.933 66.8455C203.412 67.1355 203.981 67.2805 204.641 67.2805ZM216.519 68.7043C215.491 68.7043 214.601 68.5 213.849 68.0913C213.098 67.6782 212.516 67.1003 212.103 66.3577C211.689 65.615 211.483 64.7449 211.483 63.7473V63.7341C211.483 62.7322 211.689 61.8599 212.103 61.1172C212.516 60.3745 213.098 59.7988 213.849 59.3901C214.601 58.9814 215.491 58.7771 216.519 58.7771C217.53 58.7771 218.406 58.9836 219.149 59.3967C219.892 59.8054 220.468 60.3811 220.876 61.1238C221.285 61.8665 221.489 62.7366 221.489 63.7341V63.7473C221.489 64.7405 221.285 65.6106 220.876 66.3577C220.468 67.1003 219.892 67.6782 219.149 68.0913C218.406 68.5 217.53 68.7043 216.519 68.7043ZM216.519 67.2805C217.161 67.2805 217.717 67.1355 218.187 66.8455C218.657 66.551 219.02 66.1401 219.274 65.6128C219.529 65.0811 219.657 64.457 219.657 63.7407V63.7275C219.657 63.0156 219.529 62.396 219.274 61.8687C219.02 61.3369 218.657 60.926 218.187 60.636C217.717 60.3459 217.161 60.2009 216.519 60.2009C215.86 60.2009 215.291 60.3459 214.812 60.636C214.333 60.926 213.964 61.3347 213.704 61.8621C213.449 62.3894 213.322 63.0112 213.322 63.7275V63.7407C213.322 64.457 213.449 65.0811 213.704 65.6128C213.964 66.1445 214.333 66.5554 214.812 66.8455C215.291 67.1355 215.86 67.2805 216.519 67.2805ZM228.397 68.7043C227.369 68.7043 226.479 68.5 225.728 68.0913C224.976 67.6782 224.394 67.1003 223.981 66.3577C223.568 65.615 223.361 64.7449 223.361 63.7473V63.7341C223.361 62.7322 223.568 61.8599 223.981 61.1172C224.394 60.3745 224.976 59.7988 225.728 59.3901C226.479 58.9814 227.369 58.7771 228.397 58.7771C229.408 58.7771 230.285 58.9836 231.028 59.3967C231.77 59.8054 232.346 60.3811 232.755 61.1238C233.163 61.8665 233.368 62.7366 233.368 63.7341V63.7473C233.368 64.7405 233.163 65.6106 232.755 66.3577C232.346 67.1003 231.77 67.6782 231.028 68.0913C230.285 68.5 229.408 68.7043 228.397 68.7043ZM228.397 67.2805C229.039 67.2805 229.595 67.1355 230.065 66.8455C230.535 66.551 230.898 66.1401 231.153 65.6128C231.408 65.0811 231.535 64.457 231.535 63.7407V63.7275C231.535 63.0156 231.408 62.396 231.153 61.8687C230.898 61.3369 230.535 60.926 230.065 60.636C229.595 60.3459 229.039 60.2009 228.397 60.2009C227.738 60.2009 227.169 60.3459 226.69 60.636C226.211 60.926 225.842 61.3347 225.583 61.8621C225.328 62.3894 225.2 63.0112 225.2 63.7275V63.7407C225.2 64.457 225.328 65.0811 225.583 65.6128C225.842 66.1445 226.211 66.5554 226.69 66.8455C227.169 67.1355 227.738 67.2805 228.397 67.2805Z" fill="white"/>
<path d="M100.961 96.0633C108.432 87.6363 113.277 77.2084 114.899 66.0632C116.52 54.918 114.847 43.542 110.085 33.3355C105.324 23.129 97.6822 14.5374 88.1005 8.61843C78.5188 2.69944 67.4154 -0.288657 56.1572 0.021969C44.899 0.332595 33.9773 3.92838 24.7366 10.3667C15.4958 16.805 8.33932 25.8049 4.148 36.2584C-0.0433179 46.712 -1.08652 58.1629 1.14682 69.2017C3.38016 80.2406 8.79255 90.3855 16.7178 98.3876L17.5384 97.5749C9.7717 89.7328 4.46755 79.7908 2.27888 68.9727C0.0902133 58.1547 1.11255 46.9327 5.22004 36.6882C9.32753 26.4438 16.3409 17.6239 25.3968 11.3144C34.4528 5.00481 45.156 1.48094 56.1891 1.17653C67.2221 0.872115 78.1034 3.80045 87.4935 9.60106C96.8835 15.4017 104.373 23.8214 109.039 33.8238C113.705 43.8262 115.344 54.9747 113.756 65.897C112.167 76.8192 107.419 87.0386 100.096 95.297L100.961 96.0633Z" fill="#242627"/>
<path d="M98.7159 94.073C105.8 86.0838 110.393 76.1976 111.93 65.6314C113.467 55.0652 111.881 44.2801 107.367 34.6038C102.853 24.9275 95.6078 16.7822 86.5238 11.1707C77.4399 5.55921 66.9133 2.72634 56.24 3.02083C45.5666 3.31532 35.2123 6.72431 26.4516 12.8282C17.6908 18.932 10.9061 27.4644 6.93252 37.3749C2.95893 47.2854 1.96993 58.1415 4.08725 68.6069C6.20456 79.0722 11.3358 88.6901 18.8493 96.2766L26.6294 88.5713C20.6186 82.5021 16.5137 74.8078 14.8198 66.4355C13.1259 58.0632 13.9171 49.3783 17.096 41.4499C20.2749 33.5215 25.7027 26.6956 32.7113 21.8125C39.7198 16.9294 48.0033 14.2023 56.542 13.9667C65.0807 13.7311 73.5019 15.9974 80.7691 20.4866C88.0362 24.9758 93.8321 31.492 97.4433 39.233C101.055 46.9741 102.323 55.6021 101.094 64.0551C99.8642 72.5081 96.1897 80.417 90.5227 86.8084L98.7159 94.073Z" fill="#161616"/>
<rect x="56.25" y="8.25" width="3" height="6" fill="#050505"/>
<rect x="24.4926" y="86.25" width="3" height="10.0852" transform="rotate(45 24.4926 86.25)" fill="white"/>
<path d="M53.6235 89.9023C52.9937 89.9023 52.4492 89.7876 51.9902 89.5581C51.5312 89.3286 51.1748 89.0039 50.9209 88.584C50.667 88.1641 50.54 87.6709 50.54 87.1045V87.0972C50.54 86.5308 50.667 86.0376 50.9209 85.6177C51.1748 85.1978 51.5312 84.8755 51.9902 84.6509C52.4492 84.4214 52.9937 84.3066 53.6235 84.3066C54.2437 84.3066 54.7808 84.4214 55.2349 84.6509C55.6938 84.8755 56.0479 85.1978 56.2969 85.6177C56.5508 86.0376 56.6777 86.5308 56.6777 87.0972V87.1045C56.6777 87.6709 56.5508 88.1641 56.2969 88.584C56.0479 89.0039 55.6938 89.3286 55.2349 89.5581C54.7808 89.7876 54.2437 89.9023 53.6235 89.9023ZM53.6235 88.7598C54.1118 88.7598 54.5 88.6108 54.7881 88.313C55.0762 88.0151 55.2202 87.6123 55.2202 87.1045V87.0972C55.2202 86.5845 55.0762 86.1816 54.7881 85.8887C54.5 85.5908 54.1118 85.4419 53.6235 85.4419C53.1206 85.4419 52.7251 85.5908 52.437 85.8887C52.1489 86.1865 52.0049 86.5894 52.0049 87.0972V87.1045C52.0049 87.6172 52.1489 88.0225 52.437 88.3203C52.7251 88.6133 53.1206 88.7598 53.6235 88.7598ZM54.4951 95H52.7959L61.4165 84.4312H63.1084L54.4951 95ZM62.2954 95.1172C61.6704 95.1172 61.126 95.0024 60.6621 94.7729C60.2031 94.5435 59.8467 94.2188 59.5928 93.7988C59.3438 93.3789 59.2192 92.8833 59.2192 92.312V92.3047C59.2192 91.7383 59.3438 91.2451 59.5928 90.8252C59.8467 90.4053 60.2031 90.083 60.6621 89.8584C61.126 89.6289 61.6704 89.5142 62.2954 89.5142C62.9155 89.5142 63.4551 89.6289 63.9141 89.8584C64.373 90.083 64.7271 90.4053 64.9761 90.8252C65.2251 91.2451 65.3496 91.7383 65.3496 92.3047V92.312C65.3496 92.8833 65.2251 93.3789 64.9761 93.7988C64.7271 94.2139 64.373 94.5386 63.9141 94.7729C63.4551 95.0024 62.9155 95.1172 62.2954 95.1172ZM62.2954 93.9673C62.7886 93.9673 63.1792 93.8208 63.4673 93.5278C63.7554 93.23 63.8994 92.8271 63.8994 92.3193V92.312C63.8994 91.7993 63.7554 91.3965 63.4673 91.1035C63.1792 90.8057 62.7886 90.6567 62.2954 90.6567C61.7974 90.6567 61.4019 90.8057 61.1089 91.1035C60.8208 91.3965 60.6768 91.7993 60.6768 92.312V92.3193C60.6768 92.8271 60.8208 93.23 61.1089 93.5278C61.4019 93.8208 61.7974 93.9673 62.2954 93.9673Z" fill="#898989"/>
<path d="M32.8857 111.727C31.7432 111.727 30.7544 111.5 29.9194 111.046C29.0845 110.587 28.4375 109.945 27.9785 109.12C27.5195 108.294 27.29 107.328 27.29 106.219V106.205C27.29 105.091 27.5195 104.122 27.9785 103.297C28.4375 102.472 29.0845 101.832 29.9194 101.378C30.7544 100.924 31.7432 100.697 32.8857 100.697C34.0088 100.697 34.9829 100.926 35.8081 101.385C36.6333 101.839 37.2729 102.479 37.7271 103.304C38.1812 104.129 38.4082 105.096 38.4082 106.205V106.219C38.4082 107.323 38.1812 108.29 37.7271 109.12C37.2729 109.945 36.6333 110.587 35.8081 111.046C34.9829 111.5 34.0088 111.727 32.8857 111.727ZM32.8857 110.145C33.5986 110.145 34.2163 109.984 34.7388 109.662C35.2612 109.334 35.6641 108.878 35.9473 108.292C36.2305 107.701 36.3721 107.008 36.3721 106.212V106.197C36.3721 105.406 36.2305 104.718 35.9473 104.132C35.6641 103.541 35.2612 103.084 34.7388 102.762C34.2163 102.44 33.5986 102.279 32.8857 102.279C32.1533 102.279 31.521 102.44 30.9888 102.762C30.4565 103.084 30.0464 103.539 29.7583 104.125C29.4751 104.71 29.3335 105.401 29.3335 106.197V106.212C29.3335 107.008 29.4751 107.701 29.7583 108.292C30.0464 108.883 30.4565 109.339 30.9888 109.662C31.521 109.984 32.1533 110.145 32.8857 110.145Z" fill="#D5D5D5"/>
<path d="M72.4541 111.5V102.748H72.3735L69.2534 104.571V102.813L72.4468 100.931H74.4463V111.5H72.4541ZM82.957 111.727C81.8145 111.727 80.8257 111.5 79.9907 111.046C79.1558 110.587 78.5088 109.945 78.0498 109.12C77.5908 108.294 77.3613 107.328 77.3613 106.219V106.205C77.3613 105.091 77.5908 104.122 78.0498 103.297C78.5088 102.472 79.1558 101.832 79.9907 101.378C80.8257 100.924 81.8145 100.697 82.957 100.697C84.0801 100.697 85.0542 100.926 85.8794 101.385C86.7046 101.839 87.3442 102.479 87.7983 103.304C88.2524 104.129 88.4795 105.096 88.4795 106.205V106.219C88.4795 107.323 88.2524 108.29 87.7983 109.12C87.3442 109.945 86.7046 110.587 85.8794 111.046C85.0542 111.5 84.0801 111.727 82.957 111.727ZM82.957 110.145C83.6699 110.145 84.2876 109.984 84.8101 109.662C85.3325 109.334 85.7354 108.878 86.0186 108.292C86.3018 107.701 86.4434 107.008 86.4434 106.212V106.197C86.4434 105.406 86.3018 104.718 86.0186 104.132C85.7354 103.541 85.3325 103.084 84.8101 102.762C84.2876 102.44 83.6699 102.279 82.957 102.279C82.2246 102.279 81.5923 102.44 81.0601 102.762C80.5278 103.084 80.1177 103.539 79.8296 104.125C79.5464 104.71 79.4048 105.401 79.4048 106.197V106.212C79.4048 107.008 79.5464 107.701 79.8296 108.292C80.1177 108.883 80.5278 109.339 81.0601 109.662C81.5923 109.984 82.2246 110.145 82.957 110.145ZM96.1553 111.727C95.0127 111.727 94.0239 111.5 93.189 111.046C92.354 110.587 91.707 109.945 91.248 109.12C90.7891 108.294 90.5596 107.328 90.5596 106.219V106.205C90.5596 105.091 90.7891 104.122 91.248 103.297C91.707 102.472 92.354 101.832 93.189 101.378C94.0239 100.924 95.0127 100.697 96.1553 100.697C97.2783 100.697 98.2524 100.926 99.0776 101.385C99.9028 101.839 100.542 102.479 100.997 103.304C101.451 104.129 101.678 105.096 101.678 106.205V106.219C101.678 107.323 101.451 108.29 100.997 109.12C100.542 109.945 99.9028 110.587 99.0776 111.046C98.2524 111.5 97.2783 111.727 96.1553 111.727ZM96.1553 110.145C96.8682 110.145 97.4858 109.984 98.0083 109.662C98.5308 109.334 98.9336 108.878 99.2168 108.292C99.5 107.701 99.6416 107.008 99.6416 106.212V106.197C99.6416 105.406 99.5 104.718 99.2168 104.132C98.9336 103.541 98.5308 103.084 98.0083 102.762C97.4858 102.44 96.8682 102.279 96.1553 102.279C95.4229 102.279 94.7905 102.44 94.2583 102.762C93.7261 103.084 93.3159 103.539 93.0278 104.125C92.7446 104.71 92.603 105.401 92.603 106.197V106.212C92.603 107.008 92.7446 107.701 93.0278 108.292C93.3159 108.883 93.7261 109.339 94.2583 109.662C94.7905 109.984 95.4229 110.145 96.1553 110.145Z" fill="#D5D5D5"/>
<g clip-path="url(#clip0_1_1150)">
<rect width="43.5" height="43.5" transform="translate(36 31.5)" fill="white" fill-opacity="0.01"/>
<path fill-rule="evenodd" clip-rule="evenodd" d="M50.5 37.8438H63.1875H50.5ZM56.8438 38.75V44.1875V38.75ZM41.4375 54.1562H36H41.4375ZM36.9062 47.8125V60.5V47.8125ZM69.5312 59.5938V62.4938C69.5312 65.0313 67.3562 65.0312 67.3562 65.0312H54.125L49.4125 59.5938H42.3438V47.9938L48.6875 43.2812H62.825L69.5312 50.5312H73.1562V46.9062H74.9688C76.9625 46.9062 78.5938 48.5375 78.5938 50.5312V59.5938C78.5938 61.5875 76.9625 63.2188 74.9688 63.2188H73.1562V59.5938H69.5312Z" stroke="white" stroke-width="1.5"/>
</g>
<defs>
<clipPath id="clip0_1_1150">
<rect width="43.5" height="43.5" fill="white" transform="translate(36 31.5)"/>
</clipPath>
</defs>
</svg>
