<svg width="261" height="26" viewBox="0 0 261 26" fill="none" xmlns="http://www.w3.org/2000/svg">
<path d="M31.7307 14.494C29.9538 13.3061 29.9538 10.6939 31.7307 9.50597L37.5827 5.59385C39.5761 4.26123 42.25 5.69006 42.25 8.08788L42.25 15.9121C42.25 18.3099 39.5761 19.7388 37.5827 18.4061L31.7307 14.494Z" stroke="white" stroke-width="2"/>
<path d="M24.2693 14.494C26.0462 13.3061 26.0462 10.6939 24.2693 9.50597L18.4173 5.59385C16.4239 4.26123 13.75 5.69006 13.75 8.08788L13.75 15.9121C13.75 18.3099 16.4239 19.7388 18.4173 18.4061L24.2693 14.494Z" stroke="white" stroke-width="2"/>
<rect x="51.9282" width="4" height="8" rx="2" transform="rotate(60 51.9282 0)" fill="white"/>
<rect x="55" y="10" width="4" height="8" rx="2" transform="rotate(90 55 10)" fill="white"/>
<rect x="53.4852" y="20.6569" width="4" height="8" rx="2" transform="rotate(135 53.4852 20.6569)" fill="white"/>
<rect width="4" height="8" rx="2" transform="matrix(-0.5 0.866025 0.866025 0.5 3.07178 0)" fill="white"/>
<rect width="4" height="8" rx="2" transform="matrix(4.37114e-08 1 1 -4.37114e-08 0 10)" fill="white"/>
<rect width="4" height="8" rx="2" transform="matrix(0.707107 0.707107 0.707107 -0.707107 1.51477 20.6569)" fill="white"/>
<path d="M79.3125 19.4853V9.62103H84.6445C85.8112 9.62103 86.8024 9.81472 87.6182 10.2021C88.4339 10.5849 89.0537 11.1409 89.4775 11.8701C89.9014 12.5992 90.1133 13.4811 90.1133 14.5156V14.5292C90.1133 15.582 89.9014 16.4775 89.4775 17.2158C89.0537 17.954 88.4339 18.5169 87.6182 18.9042C86.807 19.2916 85.8158 19.4853 84.6445 19.4853H79.3125ZM81.1924 17.9609H84.5146C85.3031 17.9609 85.9707 17.831 86.5176 17.5712C87.0645 17.3115 87.4792 16.9286 87.7617 16.4228C88.0488 15.9169 88.1924 15.2971 88.1924 14.5634V14.5497C88.1924 13.8206 88.0511 13.2031 87.7686 12.6972C87.4906 12.1868 87.0781 11.8017 86.5312 11.5419C85.9844 11.2776 85.3122 11.1454 84.5146 11.1454H81.1924V17.9609ZM97.5234 19.6904C96.4434 19.6904 95.5137 19.5104 94.7344 19.1503C93.9551 18.7857 93.3535 18.2617 92.9297 17.5781C92.5104 16.8945 92.3008 16.0673 92.3008 15.0966V9.62103H94.1875V15.0351C94.1875 15.6913 94.3151 16.2496 94.5703 16.7099C94.8255 17.1702 95.1992 17.5234 95.6914 17.7695C96.1882 18.011 96.7988 18.1318 97.5234 18.1318C98.248 18.1318 98.8587 18.011 99.3555 17.7695C99.8522 17.5234 100.228 17.1702 100.483 16.7099C100.739 16.2496 100.866 15.6913 100.866 15.0351V9.62103H102.746V15.0966C102.746 16.0673 102.536 16.8945 102.117 17.5781C101.702 18.2617 101.103 18.7857 100.319 19.1503C99.54 19.5104 98.6081 19.6904 97.5234 19.6904ZM105.357 19.4853V9.62103H111.544C112.305 9.62103 112.954 9.74636 113.492 9.99701C114.035 10.2431 114.449 10.594 114.736 11.0497C115.023 11.5009 115.167 12.0387 115.167 12.663V12.6767C115.167 13.3831 114.982 13.9846 114.613 14.4814C114.244 14.9781 113.711 15.3313 113.014 15.541L115.502 19.4853H113.328L111.093 15.8212C111.079 15.8212 111.063 15.8212 111.045 15.8212C111.027 15.8212 111.008 15.8212 110.99 15.8212H107.237V19.4853H105.357ZM107.237 14.4199H111.394C111.986 14.4199 112.444 14.274 112.768 13.9824C113.091 13.6907 113.253 13.2805 113.253 12.7519V12.7382C113.253 12.2232 113.084 11.8199 112.747 11.5283C112.414 11.232 111.95 11.0839 111.353 11.0839H107.237V14.4199Z" fill="#A3A3A3"/>
<path fill-rule="evenodd" clip-rule="evenodd" d="M201.166 12.3714C198.844 9.76515 196.048 7.60935 192.918 6.02345C188.892 3.98342 184.433 2.94687 179.92 3.0021C175.407 3.05733 170.974 4.2027 166.999 6.34064C163.909 8.00266 161.167 10.2262 158.909 12.8886L172.52 22.1227C173.181 21.5469 173.906 21.0444 174.683 20.6264C176.355 19.727 178.22 19.2452 180.118 19.222C182.017 19.1987 183.893 19.6348 185.586 20.493C186.374 20.8919 187.11 21.3764 187.785 21.9359L201.166 12.3714ZM204.888 12.1699C205.224 12.6086 205.118 13.2343 204.669 13.5554L188.218 25.3137C187.769 25.6348 187.148 25.5264 186.778 25.1165C186.057 24.3185 185.194 23.6575 184.23 23.169C182.968 22.5294 181.57 22.2044 180.155 22.2218C178.74 22.2391 177.35 22.5982 176.104 23.2685C175.152 23.7804 174.306 24.4623 173.605 25.2777C173.245 25.6965 172.627 25.8201 172.17 25.5101L155.436 14.1579C154.979 13.8478 154.859 13.2249 155.183 12.7781C157.919 9.01242 161.471 5.90752 165.578 3.69857C169.979 1.33156 174.886 0.0634678 179.883 0.00232144C184.88 -0.0588249 189.817 1.08879 194.274 3.34739C198.434 5.45518 202.061 8.47223 204.888 12.1699Z" fill="#FFD307"/>
<circle cx="179.762" cy="7.5" r="1.5" fill="#FFD307"/>
<rect x="178.262" y="11" width="3" height="7" fill="#FFD307"/>
<path d="M231.398 21.6833V11.819H236.73C237.897 11.819 238.888 12.0127 239.703 12.4001C240.519 12.7829 241.139 13.3389 241.563 14.0681C241.987 14.7972 242.199 15.6791 242.199 16.7136V16.7272C242.199 17.78 241.987 18.6755 241.563 19.4138C241.139 20.152 240.519 20.7149 239.703 21.1022C238.892 21.4896 237.901 21.6833 236.73 21.6833H231.398ZM233.278 20.1589H236.6C237.388 20.1589 238.056 20.029 238.603 19.7692C239.15 19.5095 239.564 19.1266 239.847 18.6208C240.134 18.1149 240.278 17.4951 240.278 16.7614V16.7477C240.278 16.0186 240.136 15.4011 239.854 14.8952C239.576 14.3848 239.163 13.9997 238.617 13.7399C238.07 13.4756 237.398 13.3434 236.6 13.3434H233.278V20.1589ZM244.4 21.6833V11.819H246.28V21.6833H244.4ZM253.751 21.8952C252.694 21.8952 251.785 21.7813 251.024 21.5534C250.263 21.321 249.663 20.9883 249.226 20.5554C248.793 20.1179 248.536 19.5938 248.453 18.9831L248.44 18.8942H250.299L250.313 18.9626C250.39 19.277 250.573 19.5436 250.86 19.7624C251.147 19.9766 251.539 20.1406 252.036 20.2546C252.532 20.364 253.132 20.4186 253.833 20.4186C254.43 20.4186 254.943 20.3594 255.371 20.2409C255.8 20.1179 256.128 19.9424 256.356 19.7145C256.588 19.4821 256.704 19.211 256.704 18.9011V18.8942C256.704 18.4977 256.545 18.197 256.226 17.9919C255.907 17.7868 255.351 17.641 254.558 17.5544L252.193 17.3493C250.994 17.2171 250.11 16.9278 249.54 16.4811C248.971 16.03 248.686 15.4056 248.686 14.6081V14.6013C248.686 13.986 248.875 13.4551 249.253 13.0085C249.636 12.5619 250.176 12.2178 250.873 11.9763C251.571 11.7302 252.398 11.6071 253.355 11.6071C254.353 11.6071 255.21 11.7233 255.925 11.9557C256.645 12.1882 257.213 12.5231 257.627 12.9606C258.047 13.3936 258.3 13.9108 258.386 14.5124L258.4 14.5944H256.547L256.534 14.5261C256.438 14.2071 256.26 13.9427 256 13.7331C255.741 13.5189 255.392 13.3571 254.954 13.2477C254.517 13.1338 253.981 13.0791 253.348 13.0837C252.765 13.0837 252.266 13.1406 251.851 13.2546C251.441 13.364 251.126 13.5257 250.908 13.7399C250.689 13.9496 250.579 14.2071 250.579 14.5124V14.5192C250.579 14.8929 250.739 15.1823 251.058 15.3874C251.382 15.5925 251.915 15.7337 252.658 15.8112L255.043 16.0163C255.868 16.1074 256.54 16.2647 257.06 16.488C257.584 16.7067 257.971 17.003 258.222 17.3766C258.473 17.7503 258.598 18.2084 258.598 18.7507V18.7575C258.598 19.4183 258.407 19.9834 258.024 20.4528C257.646 20.9177 257.094 21.2754 256.37 21.5261C255.649 21.7722 254.777 21.8952 253.751 21.8952Z" fill="#A3A3A3"/>
</svg>
