<svg width="622" height="514" viewBox="0 0 622 514" fill="none" xmlns="http://www.w3.org/2000/svg">
<path d="M513.132 513.132C555.088 471.176 583.66 417.721 595.236 359.527C606.811 301.333 600.87 241.013 578.164 186.195C555.458 131.377 517.006 84.5235 467.671 51.5591C418.336 18.5947 360.335 1 301 1C241.666 0.999997 183.664 18.5947 134.329 51.5591C84.9943 84.5235 46.5426 131.377 23.8363 186.195C1.12999 241.013 -4.81102 301.333 6.76455 359.527C18.3401 417.721 46.9123 471.176 88.8681 513.132" stroke="#3F4140" stroke-width="2"/>
<g filter="url(#filter0_i_1_1079)">
<path d="M502.525 504C542.383 464.021 569.527 413.085 580.524 357.633C591.52 302.181 585.876 244.703 564.306 192.468C542.735 140.234 506.205 95.5879 459.337 64.1767C412.469 32.7656 357.368 16 301 16C244.632 16 189.531 32.7656 142.663 64.1767C95.7946 95.5878 59.2654 140.234 37.6945 192.468C16.1235 244.703 10.4795 302.181 21.4763 357.633C32.4731 413.085 59.6167 464.021 99.4746 504" stroke="#1B1A1D" stroke-width="20"/>
</g>
<path d="M494.391 496C532.731 457.66 558.841 408.811 569.42 355.632C579.998 302.452 574.569 247.33 553.819 197.236C533.069 147.142 497.931 104.326 452.848 74.2023C407.764 44.0785 354.761 28 300.539 28C246.318 28 193.314 44.0785 148.231 74.2023C103.147 104.326 68.009 147.142 47.2594 197.236C26.5098 247.33 21.0807 302.452 31.6588 355.632C42.2368 408.811 68.3469 457.66 106.687 496" stroke="#78BBC2" stroke-width="2"/>
<path d="M488.237 488C525.368 451.052 550.654 403.978 560.898 352.731C571.143 301.483 565.885 248.363 545.79 200.089C525.695 151.814 491.665 110.554 448.004 81.524C404.343 52.4945 353.011 37 300.5 37C247.989 37 196.657 52.4945 152.996 81.524C109.335 110.554 75.3052 151.814 55.2101 200.089C35.115 248.363 29.8573 301.483 40.1016 352.731C50.346 403.978 75.6324 451.052 112.763 488" stroke="#283F43" stroke-width="16"/>
<path d="M417.929 418C441.026 395.225 456.755 366.208 463.127 334.619C469.5 303.029 466.229 270.286 453.729 240.529C441.229 210.772 420.062 185.339 392.903 167.445C365.744 149.551 333.814 140 301.15 140C268.487 140 236.557 149.551 209.398 167.445C182.239 185.339 161.071 210.772 148.571 240.529C136.072 270.286 132.801 303.029 139.173 334.619C145.546 366.208 161.275 395.225 184.371 418" stroke="#3F4140"/>
<g filter="url(#filter1_i_1_1079)">
<path d="M408.667 409.419C429.946 388.315 444.437 361.426 450.308 332.153C456.179 302.88 453.166 272.538 441.65 244.963C430.134 217.389 410.632 193.821 385.61 177.239C360.588 160.657 331.171 151.807 301.078 151.807C270.984 151.807 241.567 160.657 216.545 177.239C191.524 193.821 172.022 217.389 160.505 244.963C148.989 272.538 145.976 302.88 151.847 332.153C157.718 361.426 172.209 388.315 193.488 409.419" stroke="#1B1A1D" stroke-width="20"/>
</g>
<rect x="296" y="14" width="6" height="12" fill="white"/>
<rect x="450.52" y="57" width="6" height="12" transform="rotate(32.9096 450.52 57)" fill="white"/>
<rect width="6" height="12" transform="matrix(-0.839529 0.543316 0.543316 0.839529 149.863 58)" fill="white"/>
<rect width="5" height="11.7131" transform="matrix(-0.958036 0.286648 0.286648 0.958036 215.79 27)" fill="#AA3333"/>
<rect width="5" height="11.7131" transform="matrix(-0.638497 0.769624 0.769624 0.638497 87.1926 110)" fill="#515253"/>
<rect width="5" height="11.7131" transform="matrix(-0.122382 0.992483 0.992483 0.122382 16.6119 262)" fill="#AA3333"/>
<rect width="5" height="12.1084" transform="matrix(0.355455 0.934693 0.934693 -0.355455 32 404.163)" fill="#515253"/>
<rect x="561.936" y="184.856" width="6" height="12" transform="rotate(66.2703 561.936 184.856)" fill="white"/>
<rect width="6" height="12" transform="matrix(-0.402423 0.915454 0.915454 0.402423 38.4471 185.856)" fill="white"/>
<rect x="586.383" y="317.608" width="6" height="12" transform="rotate(93.97 586.383 317.608)" fill="white"/>
<rect width="6" height="12" transform="matrix(0.0692347 0.9976 0.9976 -0.0692347 14.0001 318.608)" fill="white"/>
<rect x="512.209" y="495.222" width="6" height="12" transform="rotate(133.082 512.209 495.222)" fill="white"/>
<rect width="6" height="12" transform="matrix(0.683044 0.730377 0.730377 -0.683044 88.1735 496.222)" fill="white"/>
<rect width="5" height="11.7131" transform="matrix(-0.954712 -0.297531 -0.297531 0.954712 387.223 27.4744)" fill="#515253"/>
<rect width="5" height="11.7131" transform="matrix(-0.667678 -0.74445 -0.74445 0.667678 521.058 116.722)" fill="#515253"/>
<rect width="5" height="11.7131" transform="matrix(-0.167435 -0.985883 -0.985883 0.167435 621.222 255.256)" fill="#515253"/>
<rect width="5" height="11.7131" transform="matrix(0.403264 -0.915084 -0.915084 -0.403264 599.543 419.095)" fill="#515253"/>
<g clip-path="url(#clip0_1_1079)">
<rect width="30" height="30" transform="translate(284.978 426)" fill="white" fill-opacity="0.01"/>
<path fill-rule="evenodd" clip-rule="evenodd" d="M285.603 440.375V450.375C285.603 451.065 286.163 451.625 286.853 451.625H289.353C290.044 451.625 290.603 451.065 290.603 450.375V449.068L309.353 449.125V450.375C309.353 451.065 309.913 451.625 310.603 451.625H313.103C313.794 451.625 314.353 451.065 314.353 450.375V440.375L311.853 437.875C311.028 436.36 310.365 435.205 309.865 434.409C309.365 433.614 308.778 432.705 308.103 431.682C305.365 431.455 302.661 431.341 299.993 431.341C297.325 431.341 294.612 431.455 291.853 431.682C291.179 432.705 290.592 433.614 290.092 434.409C289.592 435.205 288.929 436.36 288.103 437.875L285.603 440.375ZM285.603 441.625H291.228H285.603Z" fill="white"/>
<path d="M308.55 441.536H313.907" stroke="#050505" stroke-width="1.07143"/>
<path d="M286.05 441.536H291.407" stroke="#050505" stroke-width="1.07143"/>
<path d="M306.403 432.662H293.601C293.209 432.662 292.848 432.876 292.661 433.22L290.751 436.72C290.361 437.434 290.878 438.305 291.691 438.305H308.334C309.149 438.305 309.666 437.43 309.272 436.716L307.342 433.216C307.153 432.874 306.794 432.662 306.403 432.662Z" fill="#010101"/>
</g>
<rect x="284.588" y="423.527" width="4" height="6" rx="2" transform="rotate(25.8784 284.588 423.527)" fill="white"/>
<rect x="280.197" y="430.288" width="5.06475" height="9.48602" rx="2.53237" transform="rotate(25.8784 280.197 430.288)" fill="white"/>
<rect x="273.187" y="442.448" width="6.536" height="11.8833" rx="3.268" transform="rotate(25.8784 273.187 442.448)" fill="white"/>
<rect width="4" height="6" rx="2" transform="matrix(-0.899722 0.436463 0.436463 0.899722 315.599 424)" fill="white"/>
<rect width="5.06475" height="9.48602" rx="2.53237" transform="matrix(-0.899722 0.436463 0.436463 0.899722 319.99 430.761)" fill="white"/>
<rect width="6.536" height="11.8833" rx="3.268" transform="matrix(-0.899722 0.436463 0.436463 0.899722 327 442.921)" fill="white"/>
<defs>
<filter id="filter0_i_1_1079" x="6" y="6" width="590" height="506.06" filterUnits="userSpaceOnUse" color-interpolation-filters="sRGB">
<feFlood flood-opacity="0" result="BackgroundImageFix"/>
<feBlend mode="normal" in="SourceGraphic" in2="BackgroundImageFix" result="shape"/>
<feColorMatrix in="SourceAlpha" type="matrix" values="0 0 0 0 0 0 0 0 0 0 0 0 0 0 0 0 0 0 127 0" result="hardAlpha"/>
<feOffset dy="1"/>
<feGaussianBlur stdDeviation="1"/>
<feComposite in2="hardAlpha" operator="arithmetic" k2="-1" k3="1"/>
<feColorMatrix type="matrix" values="0 0 0 0 1 0 0 0 0 1 0 0 0 0 1 0 0 0 0.25 0"/>
<feBlend mode="normal" in2="shape" result="effect1_innerShadow_1_1079"/>
</filter>
<filter id="filter1_i_1_1079" x="138.923" y="141.807" width="324.308" height="275.713" filterUnits="userSpaceOnUse" color-interpolation-filters="sRGB">
<feFlood flood-opacity="0" result="BackgroundImageFix"/>
<feBlend mode="normal" in="SourceGraphic" in2="BackgroundImageFix" result="shape"/>
<feColorMatrix in="SourceAlpha" type="matrix" values="0 0 0 0 0 0 0 0 0 0 0 0 0 0 0 0 0 0 127 0" result="hardAlpha"/>
<feOffset dy="1"/>
<feGaussianBlur stdDeviation="1"/>
<feComposite in2="hardAlpha" operator="arithmetic" k2="-1" k3="1"/>
<feColorMatrix type="matrix" values="0 0 0 0 1 0 0 0 0 1 0 0 0 0 1 0 0 0 0.25 0"/>
<feBlend mode="normal" in2="shape" result="effect1_innerShadow_1_1079"/>
</filter>
<clipPath id="clip0_1_1079">
<rect width="30" height="30" fill="white" transform="translate(284.978 426)"/>
</clipPath>
</defs>
</svg>
