<svg width="603" height="526" viewBox="0 0 603 526" fill="none" xmlns="http://www.w3.org/2000/svg">
<path d="M513.985 513.985C556.011 471.96 584.631 418.416 596.226 360.124C607.821 301.833 601.87 241.413 579.126 186.504C556.382 131.594 517.866 84.6627 468.449 51.6434C419.032 18.624 360.933 1 301.5 1C242.067 0.999997 183.968 18.624 134.551 51.6433C85.1343 84.6627 46.6185 131.594 23.8743 186.504C1.13021 241.413 -4.8207 301.833 6.77415 360.124C18.369 418.416 46.9888 471.96 89.0145 513.985" stroke="#3F4140" stroke-width="2"/>
<g filter="url(#filter0_i_1_887)">
<path d="M503.361 504.838C543.285 464.793 570.474 413.772 581.489 358.227C592.504 302.683 586.851 245.109 565.244 192.787C543.637 140.466 507.047 95.7455 460.101 64.282C413.155 32.8186 357.961 16.025 301.5 16.025C245.038 16.025 189.845 32.8185 142.899 64.282C95.9525 95.7454 59.3625 140.466 37.7556 192.787C16.1487 245.109 10.4953 302.683 21.5104 358.227C32.5255 413.772 59.7144 464.793 99.6387 504.838" stroke="#1B1A1D" stroke-width="20"/>
</g>
<path d="M462.713 335.573C469.046 303.736 465.795 270.735 453.373 240.745C440.951 210.755 419.914 185.122 392.924 167.087C365.933 149.053 334.201 139.427 301.74 139.427C269.278 139.427 237.546 149.053 210.555 167.087C183.565 185.122 162.528 210.755 150.106 240.745C137.684 270.735 134.433 303.736 140.766 335.573C147.099 367.411 162.731 396.655 185.684 419.609" stroke="#3F4140" stroke-width="2"/>
<g filter="url(#filter1_i_1_887)">
<path d="M449.453 332.662C455.264 303.359 452.282 272.985 440.883 245.382C429.483 217.778 410.18 194.185 385.412 177.586C360.645 160.987 331.527 152.127 301.74 152.127C271.952 152.127 242.834 160.987 218.067 177.586C193.299 194.185 173.996 217.778 162.597 245.382C151.198 272.985 148.215 303.359 154.026 332.662C159.837 361.966 174.181 388.883 195.244 410.009" stroke="#1B1A1D" stroke-width="20"/>
</g>
<path d="M419.405 410.2C439.089 387.728 451.693 359.932 455.623 330.328" stroke="#1B1A1D" stroke-width="10"/>
<path d="M542.739 200.154C522.999 152.594 489.569 111.943 446.678 83.3426C403.787 54.7423 353.361 39.4769 301.777 39.4769C250.192 39.4769 199.766 54.7423 156.875 83.3426C113.984 111.943 80.5546 152.594 60.8141 200.154C41.0735 247.715 35.9085 300.049 45.9721 350.539C56.0358 401.029 77.873 451.585 114.349 487.986" stroke="#122612" stroke-width="16"/>
<path d="M550.437 197.308C530.043 148.096 495.508 106.033 451.197 76.4393C406.887 46.8456 354.792 31.05 301.5 31.05C248.208 31.05 196.113 46.8456 151.803 76.4393C107.492 106.033 72.9562 148.096 52.5623 197.308C32.1684 246.521 26.8324 300.673 37.2291 352.916C47.6258 405.16 70.7295 456.257 108.412 493.923" stroke="#5AA653" stroke-width="2"/>
<path d="M493.417 493.951C532.05 457.272 553.986 410.772 565.731 358.799" stroke="#CBCBCB" stroke-width="2"/>
<path d="M112.996 514.012C112.195 514.012 111.498 513.862 110.906 513.563C110.32 513.264 109.867 512.84 109.548 512.293C109.229 511.747 109.07 511.102 109.07 510.36V510.35C109.07 509.614 109.229 508.976 109.548 508.436C109.867 507.889 110.32 507.466 110.906 507.167C111.498 506.867 112.195 506.717 112.996 506.717C113.783 506.717 114.467 506.867 115.046 507.167C115.632 507.466 116.085 507.889 116.404 508.436C116.723 508.976 116.882 509.614 116.882 510.35V510.36C116.882 511.102 116.723 511.747 116.404 512.293C116.085 512.834 115.632 513.257 115.046 513.563C114.467 513.862 113.783 514.012 112.996 514.012ZM112.996 512.694C113.705 512.694 114.268 512.486 114.685 512.069C115.102 511.646 115.31 511.076 115.31 510.36V510.35C115.31 509.64 115.102 509.077 114.685 508.661C114.268 508.237 113.705 508.026 112.996 508.026C112.266 508.026 111.69 508.237 111.267 508.661C110.85 509.077 110.642 509.64 110.642 510.35V510.36C110.642 511.076 110.85 511.646 111.267 512.069C111.69 512.486 112.266 512.694 112.996 512.694ZM113.699 520.965H111.775L123.259 506.874H125.164L113.699 520.965ZM123.982 521.112C123.181 521.112 122.488 520.962 121.902 520.663C121.316 520.363 120.86 519.94 120.535 519.393C120.216 518.84 120.056 518.195 120.056 517.459V517.45C120.056 516.714 120.216 516.073 120.535 515.526C120.86 514.979 121.316 514.559 121.902 514.266C122.488 513.967 123.181 513.817 123.982 513.817C124.776 513.817 125.463 513.967 126.043 514.266C126.628 514.559 127.081 514.979 127.4 515.526C127.719 516.073 127.878 516.714 127.878 517.45V517.459C127.878 518.195 127.719 518.836 127.4 519.383C127.081 519.93 126.628 520.357 126.043 520.663C125.463 520.962 124.776 521.112 123.982 521.112ZM123.982 519.793C124.698 519.793 125.261 519.585 125.671 519.168C126.088 518.745 126.296 518.176 126.296 517.459V517.45C126.296 516.734 126.088 516.167 125.671 515.75C125.261 515.334 124.698 515.125 123.982 515.125C123.259 515.125 122.686 515.334 122.263 515.75C121.84 516.167 121.628 516.734 121.628 517.45V517.459C121.628 518.176 121.84 518.745 122.263 519.168C122.686 519.585 123.259 519.793 123.982 519.793ZM131.96 516.053V514.325H138.796C139.858 514.325 140.675 514.077 141.248 513.583C141.821 513.081 142.107 512.378 142.107 511.473V511.454C142.107 510.555 141.821 509.859 141.248 509.364C140.675 508.862 139.858 508.612 138.796 508.612H131.96V506.874H139.109C140.144 506.874 141.043 507.062 141.804 507.44C142.566 507.818 143.155 508.348 143.572 509.032C143.995 509.709 144.207 510.51 144.207 511.434V511.454C144.207 512.372 143.995 513.179 143.572 513.875C143.155 514.566 142.563 515.103 141.794 515.487C141.033 515.864 140.138 516.053 139.109 516.053H131.96ZM130.935 520.965V506.874H132.996V520.965H130.935ZM154.89 521.249C153.184 521.249 151.7 520.949 150.437 520.35C149.174 519.751 148.194 518.905 147.498 517.811C146.807 516.711 146.462 515.415 146.462 513.924V513.905C146.462 512.414 146.811 511.122 147.507 510.028C148.204 508.928 149.184 508.081 150.447 507.489C151.71 506.89 153.191 506.59 154.89 506.59C156.596 506.59 158.08 506.89 159.343 507.489C160.613 508.081 161.593 508.928 162.283 510.028C162.979 511.122 163.328 512.414 163.328 513.905V513.924C163.328 515.415 162.979 516.711 162.283 517.811C161.593 518.905 160.613 519.751 159.343 520.35C158.08 520.949 156.596 521.249 154.89 521.249ZM154.89 519.432C156.173 519.432 157.286 519.208 158.23 518.758C159.181 518.303 159.916 517.661 160.437 516.834C160.958 516.008 161.218 515.038 161.218 513.924V513.905C161.218 512.785 160.958 511.815 160.437 510.995C159.916 510.168 159.181 509.53 158.23 509.081C157.286 508.631 156.173 508.407 154.89 508.407C153.621 508.407 152.511 508.631 151.56 509.081C150.616 509.53 149.88 510.168 149.353 510.995C148.832 511.815 148.572 512.785 148.572 513.905V513.924C148.572 515.038 148.832 516.008 149.353 516.834C149.874 517.661 150.606 518.303 151.55 518.758C152.501 519.208 153.614 519.432 154.89 519.432ZM169.626 520.965L164.802 506.874H166.97L170.652 518.221H170.72L174.91 506.874H176.921L181.111 518.221H181.179L184.861 506.874H187.029L182.205 520.965H180.203L175.945 509.676H175.876L171.638 520.965H169.626ZM189.646 520.965V506.874H201.892V508.631H191.707V512.918H201.218V514.618H191.707V519.208H201.892V520.965H189.646ZM205.017 520.965V506.874H213.738C214.734 506.874 215.597 507.049 216.326 507.401C217.055 507.746 217.615 508.234 218.005 508.866C218.403 509.497 218.601 510.246 218.601 511.112V511.131C218.601 512.153 218.331 513.019 217.791 513.729C217.257 514.432 216.488 514.93 215.486 515.223L219.06 520.965H216.628L213.308 515.497C213.289 515.497 213.269 515.497 213.25 515.497C213.23 515.497 213.207 515.497 213.181 515.497H207.078V520.965H205.017ZM207.078 513.807H213.601C214.519 513.807 215.229 513.583 215.73 513.133C216.238 512.678 216.492 512.033 216.492 511.2V511.18C216.492 510.373 216.228 509.745 215.701 509.295C215.18 508.84 214.457 508.612 213.533 508.612H207.078V513.807Z" fill="white"/>
<rect x="103.754" y="494.774" width="10.0167" height="4.00666" transform="rotate(136.594 103.754 494.774)" fill="white"/>
<rect x="82.3368" y="469.841" width="10.0167" height="4.00666" transform="rotate(143.425 82.3368 469.841)" fill="white"/>
<rect x="47.679" y="195.07" width="10.0167" height="4.00666" transform="rotate(-156.52 47.679 195.07)" fill="white"/>
<rect width="10.0167" height="4.00666" transform="matrix(-0.902725 0.430218 0.430218 0.902725 562.682 186.463)" fill="white"/>
<rect x="185.959" y="51.4743" width="10.0167" height="4.00666" transform="rotate(-115.227 185.959 51.4743)" fill="white"/>
<rect x="417.694" y="51.757" width="10.0167" height="4.00666" transform="rotate(-64.7825 417.694 51.757)" fill="white"/>
<rect x="434.49" y="322.492" width="157.054" height="11.3018" fill="#020202"/>
<path d="M460.962 326.324H561.459L562.57 329.962H460.962V326.324Z" fill="#B5B5B5"/>
<path d="M439.798 326.324H457.388L457.582 329.962H439.798V326.324Z" fill="white"/>
<path d="M565.95 326.324H583.54L583.735 329.962H565.95V326.324Z" fill="white"/>
<path d="M475.332 318.961V317.133H481.985C482.812 317.133 483.447 316.972 483.893 316.65C484.338 316.327 484.561 315.853 484.561 315.226V315.208C484.561 314.792 484.452 314.447 484.235 314.171C484.024 313.89 483.714 313.679 483.304 313.538C482.899 313.398 482.404 313.327 481.818 313.327H475.332V311.649H481.405C482.226 311.649 482.858 311.496 483.304 311.192C483.755 310.887 483.98 310.448 483.98 309.873V309.856C483.98 309.287 483.787 308.854 483.4 308.555C483.014 308.256 482.48 308.107 481.801 308.107H475.332V306.279H482.425C483.239 306.279 483.942 306.407 484.534 306.665C485.126 306.923 485.583 307.289 485.905 307.764C486.228 308.233 486.389 308.789 486.389 309.434V309.451C486.389 309.914 486.286 310.339 486.081 310.726C485.882 311.113 485.601 311.441 485.237 311.71C484.874 311.974 484.452 312.153 483.972 312.246V312.317C484.599 312.393 485.141 312.569 485.598 312.844C486.055 313.119 486.406 313.477 486.652 313.916C486.904 314.35 487.03 314.845 487.03 315.402V315.419C487.03 316.163 486.849 316.799 486.485 317.326C486.122 317.854 485.601 318.258 484.921 318.539C484.241 318.821 483.43 318.961 482.486 318.961H475.332ZM474.11 318.961V306.279H476.51V318.961H474.11ZM496.856 319.234C495.292 319.234 493.933 318.964 492.778 318.425C491.624 317.886 490.728 317.121 490.089 316.131C489.456 315.135 489.14 313.966 489.14 312.624V312.607C489.14 311.259 489.456 310.093 490.089 309.109C490.728 308.118 491.624 307.354 492.778 306.815C493.938 306.276 495.298 306.006 496.856 306.006C498.415 306.006 499.771 306.276 500.926 306.815C502.086 307.354 502.982 308.118 503.615 309.109C504.254 310.093 504.573 311.259 504.573 312.607V312.624C504.573 313.966 504.254 315.132 503.615 316.122C502.982 317.113 502.086 317.88 500.926 318.425C499.771 318.964 498.415 319.234 496.856 319.234ZM496.856 317.23C497.917 317.23 498.84 317.042 499.625 316.667C500.416 316.286 501.025 315.75 501.453 315.059C501.887 314.367 502.104 313.556 502.104 312.624V312.607C502.104 311.669 501.887 310.858 501.453 310.172C501.025 309.481 500.416 308.948 499.625 308.573C498.84 308.198 497.917 308.01 496.856 308.01C495.796 308.01 494.873 308.198 494.088 308.573C493.303 308.948 492.693 309.481 492.26 310.172C491.826 310.858 491.609 311.669 491.609 312.607V312.624C491.609 313.556 491.823 314.367 492.251 315.059C492.685 315.75 493.294 316.286 494.079 316.667C494.864 317.042 495.79 317.23 496.856 317.23ZM514.522 319.234C512.958 319.234 511.599 318.964 510.444 318.425C509.29 317.886 508.394 317.121 507.755 316.131C507.122 315.135 506.806 313.966 506.806 312.624V312.607C506.806 311.259 507.122 310.093 507.755 309.109C508.394 308.118 509.29 307.354 510.444 306.815C511.604 306.276 512.964 306.006 514.522 306.006C516.081 306.006 517.438 306.276 518.592 306.815C519.752 307.354 520.648 308.118 521.281 309.109C521.92 310.093 522.239 311.259 522.239 312.607V312.624C522.239 313.966 521.92 315.132 521.281 316.122C520.648 317.113 519.752 317.88 518.592 318.425C517.438 318.964 516.081 319.234 514.522 319.234ZM514.522 317.23C515.583 317.23 516.506 317.042 517.291 316.667C518.082 316.286 518.691 315.75 519.119 315.059C519.553 314.367 519.77 313.556 519.77 312.624V312.607C519.77 311.669 519.553 310.858 519.119 310.172C518.691 309.481 518.082 308.948 517.291 308.573C516.506 308.198 515.583 308.01 514.522 308.01C513.462 308.01 512.539 308.198 511.754 308.573C510.969 308.948 510.359 309.481 509.926 310.172C509.492 310.858 509.275 311.669 509.275 312.607V312.624C509.275 313.556 509.489 314.367 509.917 315.059C510.351 315.75 510.96 316.286 511.745 316.667C512.53 317.042 513.456 317.23 514.522 317.23ZM531.248 319.234C529.883 319.234 528.711 319.087 527.732 318.794C526.76 318.495 525.992 318.068 525.43 317.511C524.873 316.948 524.539 316.272 524.428 315.481L524.41 315.375H526.801L526.827 315.463C526.927 315.867 527.161 316.21 527.53 316.491C527.899 316.767 528.403 316.978 529.042 317.124C529.681 317.265 530.451 317.335 531.354 317.335C532.121 317.335 532.78 317.259 533.331 317.107C533.882 316.948 534.304 316.723 534.597 316.43C534.896 316.131 535.045 315.782 535.045 315.384V315.375C535.045 314.86 534.837 314.473 534.421 314.215C534.011 313.951 533.299 313.764 532.285 313.653L529.235 313.389C527.694 313.219 526.558 312.847 525.825 312.273C525.093 311.693 524.727 310.89 524.727 309.865V309.856C524.727 309.065 524.97 308.382 525.456 307.808C525.948 307.234 526.643 306.791 527.539 306.481C528.441 306.164 529.508 306.006 530.738 306.006C532.016 306.006 533.114 306.156 534.034 306.454C534.96 306.753 535.689 307.184 536.223 307.746C536.762 308.303 537.087 308.971 537.198 309.75L537.216 309.847H534.843L534.816 309.768C534.693 309.358 534.465 309.015 534.131 308.74C533.803 308.464 533.357 308.256 532.795 308.115C532.232 307.975 531.544 307.905 530.729 307.905C529.974 307.905 529.329 307.978 528.796 308.124C528.269 308.265 527.864 308.473 527.583 308.748C527.302 309.024 527.161 309.355 527.161 309.741V309.75C527.161 310.231 527.369 310.603 527.785 310.866C528.201 311.13 528.884 311.312 529.833 311.411L532.909 311.675C533.964 311.792 534.828 311.994 535.502 312.281C536.176 312.563 536.674 312.944 536.996 313.424C537.318 313.905 537.479 314.493 537.479 315.191V315.199C537.479 316.049 537.233 316.776 536.741 317.379C536.249 317.977 535.537 318.437 534.605 318.759C533.68 319.075 532.561 319.234 531.248 319.234ZM544.44 318.961V308.247H539.114V306.279H552.184V308.247H546.857V318.961H544.44Z" fill="#7B61FF"/>
<defs>
<filter id="filter0_i_1_887" x="6.02499" y="6.02499" width="590.95" height="506.873" filterUnits="userSpaceOnUse" color-interpolation-filters="sRGB">
<feFlood flood-opacity="0" result="BackgroundImageFix"/>
<feBlend mode="normal" in="SourceGraphic" in2="BackgroundImageFix" result="shape"/>
<feColorMatrix in="SourceAlpha" type="matrix" values="0 0 0 0 0 0 0 0 0 0 0 0 0 0 0 0 0 0 127 0" result="hardAlpha"/>
<feOffset dy="1"/>
<feGaussianBlur stdDeviation="1"/>
<feComposite in2="hardAlpha" operator="arithmetic" k2="-1" k3="1"/>
<feColorMatrix type="matrix" values="0 0 0 0 1 0 0 0 0 1 0 0 0 0 1 0 0 0 0.25 0"/>
<feBlend mode="normal" in2="shape" result="effect1_innerShadow_1_887"/>
</filter>
<filter id="filter1_i_1_887" x="141.132" y="142.127" width="321.215" height="275.942" filterUnits="userSpaceOnUse" color-interpolation-filters="sRGB">
<feFlood flood-opacity="0" result="BackgroundImageFix"/>
<feBlend mode="normal" in="SourceGraphic" in2="BackgroundImageFix" result="shape"/>
<feColorMatrix in="SourceAlpha" type="matrix" values="0 0 0 0 0 0 0 0 0 0 0 0 0 0 0 0 0 0 127 0" result="hardAlpha"/>
<feOffset dy="1"/>
<feGaussianBlur stdDeviation="1"/>
<feComposite in2="hardAlpha" operator="arithmetic" k2="-1" k3="1"/>
<feColorMatrix type="matrix" values="0 0 0 0 1 0 0 0 0 1 0 0 0 0 1 0 0 0 0.25 0"/>
<feBlend mode="normal" in2="shape" result="effect1_innerShadow_1_887"/>
</filter>
</defs>
</svg>
